<svg xmlns="http://www.w3.org/2000/svg" viewBox="0 0 32 32" width="32" height="32">
  <rect width="32" height="32" rx="8" fill="#FFFCF6" />
  <g fill="none" stroke-width="2.6" stroke-linecap="round">
    <path d="M6 21 A10 10 0 0 1 26 21" stroke="#FF4D97" />
    <path d="M9 21 A7 7 0 0 1 23 21" stroke="#FFD12E" />
    <path d="M12 21 A4 4 0 0 1 20 21" stroke="#1F86F5" />
  </g>
  <path d="M16 28c-3.2-2.2-5.4-4.3-5.4-6.6a2.6 2.6 0 0 1 4.7-1.5l.7.9.7-.9a2.6 2.6 0 0 1 4.7 1.5c0 2.3-2.2 4.4-5.4 6.6z" fill="#8B4DFF" />
</svg>
